<svg xmlns="http://www.w3.org/2000/svg" xmlns:xlink="http://www.w3.org/1999/xlink" width="882" height="1021.5"><defs><path id="h" d="M285-691c174 0 280 71 280 220 0 159-115 230-271 230h-81V0H81v-691zm-72 351c122 5 214-1 214-131 0-114-94-131-214-123z"/><path id="l" d="M468-140c0 43 14 58 40 68l-27 85c-58-5-96-25-117-77-37 56-95 79-158 79C100 15 35-52 35-148c0-136 131-190 307-177 6-84-19-122-99-122-36 0-87 10-140 28l-30-87c65-25 132-38 192-38 141 0 203 65 203 182zM240-78c45 0 78-23 102-65v-107c-97-7-177 12-177 92 0 51 26 80 75 80"/><path id="q" d="M359-544c95 0 150 60 150 161V0H381v-363c0-66-25-85-65-85-46 0-80 31-111 80V0H77v-529h111l10 70c41-53 94-85 161-85"/><path id="b" d="M293-544c156 0 248 106 248 279 0 167-93 280-249 280S43-91 43-265c0-166 93-279 250-279m0 97c-75 0-115 57-115 182 0 127 39 183 114 183s114-57 114-183-39-182-113-182"/><path id="i" d="m335-108 45 83c-38 27-86 40-133 40C143 14 88-45 88-158v-279H5v-92h83v-117l128-15v132h123l-13 92H216v276c-6 86 67 86 119 53"/><path id="f" d="M140-797c48 0 81 34 81 78 0 43-33 77-81 77-47 0-80-34-80-77 0-44 33-78 80-78m65 268V0H77v-529z"/><path id="t" d="M290-544c69 0 122 19 172 62l-57 77c-108-76-226-44-226 143 0 188 119 206 226 135l57 81C414-7 359 15 291 15 138 15 43-91 43-260s95-284 247-284"/><path id="c" d="M200-425c34-94 94-136 191-111l-22 124c-99-24-140 22-164 131V0H77v-529h111"/><path id="u" d="M359-544c94 0 150 61 150 161V0H381v-363c0-66-26-85-65-85-45 0-80 31-111 79V0H77v-740l128-13v288c40-50 91-79 154-79"/><path id="d" d="M278-544c164 0 251 130 230 319H176c12 174 158 169 262 96l53 73c-52 42-116 71-196 71C131 15 43-94 43-261c0-161 85-283 235-283m106 236c1-90-29-145-103-145-60 0-98 40-105 145z"/><path id="s" d="M500-529V0H389l-7-74c-39 60-90 89-162 89-96 0-148-62-148-164v-380h128v364c0 62 21 83 65 83 43 0 79-29 107-75v-372z"/><path id="j" d="m505-603 32 102c-40 14-90 18-153 18 64 29 96 70 96 136 0 122-128 205-276 170-33 29-38 76 42 76h81c117 0 193 63 193 150 0 106-91 169-264 169C68 218 15 158 15 52h115c0 53 23 76 128 76 103 0 133-28 133-70 0-67-95-65-170-63C51 0 30-138 132-205c-65-34-93-81-93-149 0-115 91-190 219-190 125 0 183-25 247-59M260-457c-58 0-92 40-92 101 0 64 35 104 94 104 61 0 94-38 94-105s-32-100-96-100"/><path id="g" d="M244-544c76 0 138 24 188 63l-50 75c-44-28-86-43-133-43-51 0-80 21-80 53 0 35 21 51 111 76 108 29 169 73 169 167C449-43 347 15 226 15 135 15 64-16 15-60l64-72c41 31 90 52 144 52 57 0 94-24 94-64 0-44-21-58-120-86C88-260 40-312 40-390c0-88 81-154 204-154"/><path id="e" d="m394-755 128 14V0H409l-9-67c-32 48-82 82-151 82C117 15 48-96 48-264c0-163 81-280 215-280 54 0 98 23 131 57zM285-82c47 0 79-23 109-68v-242c-28-35-58-56-100-56-67 0-111 56-111 183 0 136 39 183 102 183"/><path id="p" d="M638-544c84 0 140 61 140 161V0H650v-363c0-66-26-85-58-85-44 0-71 31-100 80V0H364v-363c0-66-27-85-58-85-45 0-72 31-101 80V0H77v-529h111l10 69c38-53 86-84 153-84 61 0 108 32 129 89 40-56 88-89 158-89"/><path id="v" d="M251-691c182 0 354 56 354 342C605-69 434 0 269 0H81v-691zm215 342c0-238-97-248-253-243v493h65c103 0 188-46 188-250"/><path id="m" d="M505-529 333 2C293 126 215 206 58 218l-13-93C150 109 184 75 214 0h-44L2-529h136L253-85l120-444z"/><path id="o" d="M346-706c185 0 302 129 302 360 0 228-117 361-302 361S43-114 43-345c0-227 118-361 303-361m0 101c-103 0-164 74-164 260S245-86 346-86c103 0 163-73 163-260 0-185-59-259-163-259"/><path id="r" d="M502-529 330 0H177L2-529h139l113 426 116-426z"/><path id="k" d="M358-706c98 0 164 31 222 81l-72 75c-46-38-85-56-144-56-98 0-182 74-182 260 0 189 56 260 164 260 39 0 77-8 110-27v-180H352l-14-98h248v338c-67 42-149 68-243 68C151 15 43-109 43-346c0-234 145-360 315-360"/><path id="n" d="M202 15C121 15 72-34 72-121v-620l128-14v630c-5 40 32 42 60 32l27 90c-22 10-52 18-85 18"/><path id="a" d="M343-706c91 0 148 26 204 73l-68 79c-39-33-80-50-128-50-95 0-169 70-169 257 0 182 72 256 171 256 59 0 100-28 140-58l62 80c-42 43-114 84-208 84C168 15 43-112 43-347c0-232 132-359 300-359"/><path id="B" d="m525-691-14 105H331V0H198v-586H12v-105z"/><path id="C" d="M205-755V0H77v-741zm317 226L346-296 539 0H392L210-289l177-240z"/><g id="w"><use xlink:href="#a" transform="scale(.018)"/><use xlink:href="#b" transform="translate(10.044)scale(.018)"/><use xlink:href="#c" transform="translate(20.556)scale(.018)"/><use xlink:href="#d" transform="translate(27.468)scale(.018)"/></g><g id="x"><path d="M8.1 0 5.346-4.986H3.834V0H1.458v-12.438h3.708c3.258 0 4.932 1.188 4.932 3.654 0 1.71-.828 2.7-2.52 3.366L10.836 0zM3.834-10.71v4.014c2.07.108 3.78 0 3.78-2.088 0-1.35-.774-1.926-2.502-1.926z"/><use xlink:href="#d" transform="translate(10.818)scale(.018)"/><use xlink:href="#e" transform="translate(20.754)scale(.018)"/><use xlink:href="#f" transform="translate(31.536)scale(.018)"/><use xlink:href="#g" transform="translate(36.612)scale(.018)"/></g><g id="y"><use xlink:href="#h" transform="scale(.018)"/><use xlink:href="#b" transform="translate(10.278)scale(.018)"/><use xlink:href="#g" transform="translate(20.79)scale(.018)"/><use xlink:href="#i" transform="translate(29.358)scale(.018)"/><use xlink:href="#j" transform="translate(36.108)scale(.018)"/><use xlink:href="#c" transform="translate(45.774)scale(.018)"/><use xlink:href="#d" transform="translate(52.686)scale(.018)"/><use xlink:href="#g" transform="translate(62.622)scale(.018)"/></g><g id="z"><use xlink:href="#k" transform="scale(.018)"/><use xlink:href="#c" transform="translate(11.484)scale(.018)"/><use xlink:href="#l" transform="translate(18.216)scale(.018)"/><use xlink:href="#m" transform="translate(27.864)scale(.018)"/><use xlink:href="#n" transform="translate(36.972)scale(.018)"/><use xlink:href="#b" transform="translate(42.102)scale(.018)"/><use xlink:href="#j" transform="translate(52.614)scale(.018)"/></g><g id="A"><use xlink:href="#o" transform="scale(.018)"/><use xlink:href="#p" transform="translate(12.438)scale(.018)"/><use xlink:href="#q" transform="translate(27.738)scale(.018)"/><use xlink:href="#f" transform="translate(38.196)scale(.018)"/><use xlink:href="#r" transform="translate(43.272)scale(.018)"/><use xlink:href="#b" transform="translate(52.164)scale(.018)"/><use xlink:href="#c" transform="translate(62.676)scale(.018)"/><use xlink:href="#d" transform="translate(69.588)scale(.018)"/></g><g id="D"><path d="M8.766-.756c1.548 0 2.61.45 3.546 1.116l-1.476 1.926C9.576 1.008 8.406.216 6.102.216 2.898.216.774-2.052.774-6.21c0-4.086 2.124-6.498 5.454-6.498s5.436 2.322 5.436 6.48c0 3.042-1.242 4.59-2.898 5.472M3.276-6.21c0 3.348 1.134 4.662 2.952 4.662 1.854 0 2.934-1.314 2.934-4.68 0-3.33-1.062-4.662-2.934-4.662-1.854 0-2.952 1.332-2.952 4.68"/><use xlink:href="#s" transform="translate(12.402)scale(.018)"/><use xlink:href="#d" transform="translate(22.788)scale(.018)"/><use xlink:href="#s" transform="translate(32.724)scale(.018)"/><use xlink:href="#d" transform="translate(43.11)scale(.018)"/></g></defs><g transform="translate(-19 1)"><path fill="none" d="M20 0h880v100H20z"/><g transform="translate(40.7 72.333)"><use xlink:href="#h" transform="scale(.06667)"/><use xlink:href="#l" transform="translate(37.4)scale(.06667)"/><use xlink:href="#q" transform="translate(73.8)scale(.06667)"/><use xlink:href="#b" transform="translate(112.533)scale(.06667)"/><path d="M174.733-36.267c9.334 0 13.2 7.267 13.2 18.534 0 10.8-5 18.733-13.933 18.733-3.6 0-6.667-1.267-8.867-3.867V13.6l-8.533.933v-49.8h7.467l.466 4.334c2.8-3.667 6.6-5.334 10.2-5.334M171.6-5.533c4.667 0 7.4-3.6 7.4-12.134 0-8.933-2.4-12.2-6.8-12.2-2.933 0-5.4 2.067-7.067 4.8V-9.2c1.667 2.467 3.8 3.667 6.467 3.667"/><use xlink:href="#i" transform="translate(191.2)scale(.06667)"/><use xlink:href="#f" transform="translate(216.2)scale(.06667)"/><use xlink:href="#t" transform="translate(235)scale(.06667)"/><use xlink:href="#b" transform="translate(266.867)scale(.06667)"/><use xlink:href="#q" transform="translate(305.8)scale(.06667)"/></g><g transform="translate(401.9 72.333)"><path d="m29.8 0-2.867-10.667H11.667L8.8 0H-.333L14-46.067h10.867L39.133 0zM13.4-17.333h11.8l-5.933-22"/><use xlink:href="#c" transform="translate(38.867)scale(.06667)"/><use xlink:href="#t" transform="translate(64.467)scale(.06667)"/><use xlink:href="#u" transform="translate(96.333)scale(.06667)"/><use xlink:href="#f" transform="translate(135.067)scale(.06667)"/><use xlink:href="#i" transform="translate(153.867)scale(.06667)"/><use xlink:href="#d" transform="translate(178.2)scale(.06667)"/><use xlink:href="#t" transform="translate(215)scale(.06667)"/><use xlink:href="#i" transform="translate(246.867)scale(.06667)"/><use xlink:href="#s" transform="translate(271.867)scale(.06667)"/><use xlink:href="#c" transform="translate(310.333)scale(.06667)"/><use xlink:href="#d" transform="translate(335.933)scale(.06667)"/></g><path d="M806.833 26.667c9.267 0 14.6 5.6 14.6 12.6 0 7.6-4.333 13.133-18.2 26.333h19.2l-.933 6.733h-27.933v-6.266c15.333-15.6 19.066-19.8 19.066-26.134 0-4.133-2.6-6.533-6.466-6.533-3.534 0-5.867 1.467-8.6 4.733L792.3 34c3.6-4.667 8.333-7.333 14.533-7.333m26.2 35.866c3.067 0 5.467 2.4 5.467 5.4 0 2.934-2.4 5.4-5.467 5.4-3 0-5.333-2.466-5.333-5.4 0-3 2.333-5.4 5.333-5.4m27.134-35.866c10.6 0 16.066 8.333 16.066 23.266 0 15-5.466 23.4-16.066 23.4-10.534 0-16.067-8.4-16.067-23.4 0-14.933 5.533-23.266 16.067-23.266m0 6.466c-4.934 0-7.267 4.4-7.267 16.8 0 12.534 2.333 16.934 7.267 16.934s7.266-4.267 7.266-16.934c0-12.6-2.333-16.8-7.266-16.8"/><path fill="#b2d6ef" stroke="#0c7cba" stroke-width="2" d="M267.9 120c17.67 0 32 17.9 32 40s-14.33 40-32 40h-96c-17.67 0-32-17.9-32-40s14.33-40 32-40z"/><g transform="translate(192.027 166.03)"><path d="M10.638-12.438V0H7.56L3.294-10.062c.378 2.124.342 7.056.324 10.062h-2.16v-12.438h3.006l4.338 10.08c-.432-2.268-.324-7.074-.324-10.08z"/><use xlink:href="#l" transform="translate(12.096)scale(.018)"/><use xlink:href="#j" transform="translate(21.924)scale(.018)"/><use xlink:href="#f" transform="translate(31.59)scale(.018)"/><use xlink:href="#b" transform="translate(36.666)scale(.018)"/><use xlink:href="#g" transform="translate(47.178)scale(.018)"/></g><path fill="#b2d6ef" stroke="#0c7cba" stroke-width="2" d="M467.9 120c17.67 0 32 17.9 32 40s-14.33 40-32 40h-96c-17.67 0-32-17.9-32-40s14.33-40 32-40z"/><g transform="translate(383.774 166.03)"><use xlink:href="#h" transform="scale(.018)"/><use xlink:href="#f" transform="translate(10.638)scale(.018)"/><use xlink:href="#q" transform="translate(15.714)scale(.018)"/><use xlink:href="#j" transform="translate(26.172)scale(.018)"/><use xlink:href="#e" transform="translate(35.658)scale(.018)"/><use xlink:href="#b" transform="translate(46.44)scale(.018)"/><use xlink:href="#p" transform="translate(56.952)scale(.018)"/></g><path fill="#b2d6ef" stroke="#0c7cba" stroke-width="2" d="M667.9 120c17.67 0 32 17.9 32 40s-14.33 40-32 40h-96c-17.67 0-32-17.9-32-40s14.33-40 32-40z"/><g transform="translate(577.726 166.03)"><use xlink:href="#h" transform="scale(.018)"/><use xlink:href="#l" transform="translate(10.098)scale(.018)"/><use xlink:href="#j" transform="translate(19.926)scale(.018)"/><use xlink:href="#d" transform="translate(29.412)scale(.018)"/><use xlink:href="#c" transform="translate(39.348)scale(.018)"/><use xlink:href="#v" transform="translate(46.44)scale(.018)"/><use xlink:href="#s" transform="translate(58.104)scale(.018)"/><use xlink:href="#i" transform="translate(68.49)scale(.018)"/><use xlink:href="#m" transform="translate(75.24)scale(.018)"/></g><path fill="#b2d6ef" stroke="#0c7cba" stroke-width="2" d="M867.9 120c17.67 0 32 17.9 32 40s-14.33 40-32 40h-96c-17.67 0-32-17.9-32-40s14.33-40 32-40z"/><g transform="translate(774.045 166.03)"><path d="M5.04-12.708c1.818 0 3.024.54 4.104 1.53l-1.17 1.35c-.9-.738-1.764-1.062-2.79-1.062-1.116 0-1.926.504-1.926 1.476 0 .9.486 1.296 2.556 1.944 2.178.684 3.69 1.584 3.69 3.924C9.504-1.314 7.758.27 4.788.27 2.808.27 1.332-.432.306-1.44l1.242-1.368c.9.774 1.89 1.242 3.186 1.242 1.332 0 2.286-.648 2.286-1.854 0-1.044-.522-1.512-2.466-2.106C1.944-6.336.81-7.38.81-9.27c0-2.07 1.782-3.438 4.23-3.438"/><use xlink:href="#i" transform="translate(10.08)scale(.018)"/><use xlink:href="#l" transform="translate(16.83)scale(.018)"/><use xlink:href="#i" transform="translate(26.658)scale(.018)"/><use xlink:href="#s" transform="translate(33.408)scale(.018)"/><use xlink:href="#g" transform="translate(43.794)scale(.018)"/><use xlink:href="#h" transform="translate(52.362)scale(.018)"/><use xlink:href="#l" transform="translate(62.46)scale(.018)"/><use xlink:href="#j" transform="translate(72.288)scale(.018)"/><use xlink:href="#d" transform="translate(81.774)scale(.018)"/></g><path fill="#c7e8ac" stroke="#7ab648" stroke-width="2" d="M429.9 400h180v80h-180z"/><g transform="translate(480.138 446.03)"><use xlink:href="#o" transform="scale(.018)"/><use xlink:href="#p" transform="translate(12.438)scale(.018)"/><use xlink:href="#q" transform="translate(27.738)scale(.018)"/><use xlink:href="#f" transform="translate(38.196)scale(.018)"/><use xlink:href="#r" transform="translate(43.272)scale(.018)"/><use xlink:href="#b" transform="translate(52.164)scale(.018)"/><use xlink:href="#c" transform="translate(62.676)scale(.018)"/><use xlink:href="#d" transform="translate(69.588)scale(.018)"/></g><path fill="#ffeca9" stroke="#fcc438" stroke-width="2" d="M429.7 560h180v80h-180z"/><g transform="translate(488.56 606.03)"><use xlink:href="#k" transform="scale(.018)"/><use xlink:href="#c" transform="translate(11.484)scale(.018)"/><use xlink:href="#l" transform="translate(18.216)scale(.018)"/><use xlink:href="#m" transform="translate(27.864)scale(.018)"/><use xlink:href="#n" transform="translate(36.972)scale(.018)"/><use xlink:href="#b" transform="translate(42.102)scale(.018)"/><use xlink:href="#j" transform="translate(52.614)scale(.018)"/></g><path fill="#ffbbb1" stroke="#c92d39" stroke-width="2" d="M429.8 720h180v80h-180z"/><g transform="translate(501.098 766.03)"><use xlink:href="#a" transform="scale(.018)"/><use xlink:href="#b" transform="translate(10.044)scale(.018)"/><use xlink:href="#c" transform="translate(20.556)scale(.018)"/><use xlink:href="#d" transform="translate(27.468)scale(.018)"/></g><path fill="#ffbbb1" stroke="#c92d39" stroke-width="2" d="M140.1 808c0 6.63-26.86 12-60 12s-60-5.37-60-12v-96c0-6.63 26.86-12 60-12s60 5.37 60 12z"/><path fill="none" stroke="#c92d39" stroke-width="2" d="M140.1 712c0 6.63-26.86 12-60 12s-60-5.37-60-12"/><use xlink:href="#w" transform="translate(36.558 778.03)"/><use xlink:href="#x" transform="translate(78.462 778.03)"/><path fill="#ffbbb1" stroke="#c92d39" stroke-width="2" d="M794.9 808c0 6.63-26.86 12-60 12s-60-5.37-60-12v-96c0-6.63 26.86-12 60-12s60 5.37 60 12z"/><path fill="none" stroke="#c92d39" stroke-width="2" d="M794.9 712c0 6.63-26.86 12-60 12s-60-5.37-60-12"/><g transform="translate(716.198 767.23)"><use xlink:href="#a" transform="scale(.018)"/><use xlink:href="#b" transform="translate(10.044)scale(.018)"/><use xlink:href="#c" transform="translate(20.556)scale(.018)"/><use xlink:href="#d" transform="translate(27.468)scale(.018)"/></g><use xlink:href="#y" transform="translate(699.305 788.83)"/><path fill="#ffeca9" stroke="#fcc438" stroke-width="2" d="M794.7 648c0 6.63-26.86 12-60 12s-60-5.37-60-12v-96c0-6.63 26.86-12 60-12s60 5.37 60 12z"/><path fill="none" stroke="#fcc438" stroke-width="2" d="M794.7 552c0 6.63-26.86 12-60 12s-60-5.37-60-12"/><use xlink:href="#z" transform="translate(703.56 607.23)"/><g transform="translate(680.709 628.83)"><path d="m8.676-12.438-.252 1.764h-4.59V-7.2H7.83v1.764H3.834v3.654h4.914V0h-7.29v-12.438z"/><use xlink:href="#n" transform="translate(9.54)scale(.018)"/><use xlink:href="#l" transform="translate(14.85)scale(.018)"/><use xlink:href="#g" transform="translate(24.678)scale(.018)"/><use xlink:href="#i" transform="translate(33.246)scale(.018)"/><use xlink:href="#f" transform="translate(39.996)scale(.018)"/><use xlink:href="#t" transform="translate(45.072)scale(.018)"/><use xlink:href="#g" transform="translate(53.676)scale(.018)"/><use xlink:href="#d" transform="translate(62.244)scale(.018)"/><use xlink:href="#l" transform="translate(72.18)scale(.018)"/><use xlink:href="#c" transform="translate(82.008)scale(.018)"/><use xlink:href="#t" transform="translate(88.92)scale(.018)"/><use xlink:href="#u" transform="translate(97.524)scale(.018)"/></g><path fill="#ffeca9" stroke="#fcc438" stroke-width="2" d="M344.9 648c0 6.63-26.86 12-60 12s-60-5.37-60-12v-96c0-6.63 26.86-12 60-12s60 5.37 60 12z"/><path fill="none" stroke="#fcc438" stroke-width="2" d="M344.9 552c0 6.63-26.86 12-60 12s-60-5.37-60-12"/><use xlink:href="#z" transform="translate(253.76 607.23)"/><g transform="translate(245.966 628.83)"><path d="M12.276-12.438 13.248 0h-2.322c-.18-3.132-.522-7.236-.486-10.278L8.172-1.35h-2.25L3.51-10.296C3.672-6.876 3.294-3.312 3.132 0H.828l.99-12.438h3.06l2.214 8.712 2.088-8.712z"/><use xlink:href="#b" transform="translate(14.202)scale(.018)"/><use xlink:href="#q" transform="translate(24.714)scale(.018)"/><use xlink:href="#j" transform="translate(35.172)scale(.018)"/><use xlink:href="#b" transform="translate(44.658)scale(.018)"/><use xlink:href="#v" transform="translate(55.17)scale(.018)"/><path d="M74.394-6.588c1.422.27 2.844.936 2.844 3.006C77.238-.846 75.06 0 72.036 0h-3.744v-12.438h3.258c3.204 0 5.148.9 5.148 3.168 0 1.548-1.116 2.43-2.304 2.682m-.126-2.484c0-1.638-1.764-1.674-3.6-1.62v3.366c1.836.108 3.6-.036 3.6-1.746m-3.6 7.29c2.034.018 4.086.18 4.086-1.89 0-2.124-1.998-2.07-4.086-1.998z"/></g><path fill="#c7e8ac" stroke="#7ab648" stroke-width="2" d="M794.7 488c0 6.63-26.86 12-60 12s-60-5.37-60-12v-96c0-6.63 26.86-12 60-12s60 5.37 60 12z"/><path fill="none" stroke="#7ab648" stroke-width="2" d="M794.7 392c0 6.63-26.86 12-60 12s-60-5.37-60-12"/><use xlink:href="#A" transform="translate(694.938 447.23)"/><use xlink:href="#y" transform="translate(699.105 468.83)"/><g stroke="#000"><path fill="none" stroke-width="2" d="M219.9 202v98h300v80.5"/><path stroke-width=".05" d="M220.88 202.03h-1.95V201h1.94z"/><path stroke-width="2" d="m519.9 395.76-4.63-14.26h9.26z"/><path fill="none" stroke-width="2" d="M419.9 202v98h100v80.5"/><path stroke-width=".05" d="M420.88 202.03h-1.95V201h1.94z"/><path stroke-width="2" d="m519.9 395.76-4.63-14.26h9.26z"/><path fill="none" stroke-width="2" d="M619.9 219.5V300h-100v80.5"/><path stroke-width="2" d="m619.9 204.24 4.63 14.26h-9.26zm-100 191.52-4.63-14.26h9.26z"/><path fill="none" stroke-width="2" d="M819.9 202v98h-300v80.5"/><path stroke-width=".05" d="M820.88 202.03h-1.96V201h1.96z"/><path stroke-width="2" d="m519.9 395.76-4.63-14.26h9.26z"/><path fill="none" stroke-width="2" d="M629.4 440h25.8"/><path stroke-width="2" d="m614.14 440 14.26-4.63v9.26zm56.32 0-14.26 4.63v-9.26z"/><path fill="none" stroke-width="2" d="M519.9 482v58.5"/><path stroke-width=".05" d="M520.88 482.03h-1.96V481h1.96z"/><path stroke-width="2" d="m519.9 555.76-4.63-14.26h9.26z"/><path fill="none" stroke-width="2" d="M519.7 659.5V680h-.1v20.5"/><path stroke-width="2" d="m519.7 644.24 4.63 14.26h-9.26zm-.1 71.52-4.63-14.26h9.26z"/></g><path fill="#c7e8ac" stroke="#7ab648" stroke-width="2" d="M237.1 380h96l32 60-32 60h-96l-32-60z"/><g transform="translate(225.034 435.23)"><use xlink:href="#o" transform="scale(.018)"/><use xlink:href="#p" transform="translate(12.438)scale(.018)"/><use xlink:href="#q" transform="translate(27.738)scale(.018)"/><use xlink:href="#f" transform="translate(38.196)scale(.018)"/><use xlink:href="#r" transform="translate(43.272)scale(.018)"/><use xlink:href="#b" transform="translate(52.164)scale(.018)"/><use xlink:href="#c" transform="translate(62.676)scale(.018)"/><use xlink:href="#d" transform="translate(69.588)scale(.018)"/></g><g transform="translate(309.058 435.23)"><use xlink:href="#B" transform="scale(.018)"/><use xlink:href="#l" transform="translate(8.1)scale(.018)"/><use xlink:href="#g" transform="translate(17.928)scale(.018)"/><use xlink:href="#C" transform="translate(26.496)scale(.018)"/></g><use xlink:href="#D" transform="translate(258.577 456.83)"/><path fill="none" stroke="#000" stroke-width="2" d="M410.4 440h-25.66"/><path stroke="#000" stroke-width="2" d="m425.66 440-14.26 4.63v-9.26zm-56.19 0 14.26-4.63v9.26z"/><path fill="#c7e8ac" stroke="#7ab648" stroke-width="2" d="M140.3 488c0 6.63-26.86 12-60 12s-60-5.37-60-12v-96c0-6.63 26.86-12 60-12s60 5.37 60 12z"/><path fill="none" stroke="#7ab648" stroke-width="2" d="M140.3 392c0 6.63-26.86 12-60 12s-60-5.37-60-12"/><use xlink:href="#A" transform="translate(40.538 447.23)"/><use xlink:href="#x" transform="translate(57.71 468.83)"/><path fill="none" stroke="#000" stroke-width="2" d="M185.47 440H159.8"/><path stroke="#000" stroke-width="2" d="m200.73 440-14.26 4.63v-9.26zm-56.19 0 14.26-4.63v9.26z"/><path fill="#ffbbb1" stroke="#c92d39" stroke-width="2" d="M236.7 700h96l32 60-32 60h-96l-32-60z"/><use xlink:href="#w" transform="translate(216.921 766.03)"/><g transform="translate(258.825 766.03)"><use xlink:href="#B" transform="scale(.018)"/><use xlink:href="#l" transform="translate(8.1)scale(.018)"/><use xlink:href="#g" transform="translate(17.928)scale(.018)"/><use xlink:href="#C" transform="translate(26.496)scale(.018)"/></g><use xlink:href="#D" transform="translate(299.433 766.03)"/><path fill="none" stroke="#000" stroke-width="2" d="M410.3 760h-25.97"/><path stroke="#000" stroke-width="2" d="m425.56 760-14.26 4.63v-9.26zm-56.49 0 14.26-4.63v9.26z"/><path fill="none" stroke="#000" stroke-width="2" d="M185.06 760H159.6"/><path stroke="#000" stroke-width="2" d="m200.33 760-14.27 4.63v-9.26zm-55.99 0 14.26-4.63v9.26z"/><path fill="none" stroke="#000" stroke-width="2" d="M410.2 600h-45.8"/><path stroke="#000" stroke-width="2" d="m425.46 600-14.26 4.63v-9.26zm-76.32 0 14.26-4.63v9.26z"/><path fill="none" stroke="#000" stroke-width="2" d="M629.2 600h26"/><path stroke="#000" stroke-width="2" d="m613.94 600 14.26-4.63v9.26zm56.52 0-14.26 4.63v-9.26z"/><path fill="none" stroke="#000" stroke-width="2" d="M629.3 760h26.1"/><path stroke="#000" stroke-width="2" d="m614.04 760 14.26-4.63v9.26zm56.62 0-14.26 4.63v-9.26z"/><path fill="none" stroke="#000" stroke-width="2" d="m519.95 861.5-.1-42"/><path stroke="#000" stroke-width="2" d="m520 876.76-4.68-14.25h9.27zm-.2-72.52 4.68 14.25h-9.27z"/><path fill="none" d="M460 880h120v140H460z"/><path fill="#d1bcd2" d="M580 996.4c0 7.3-2.06 13.04-6.22 17.27-4.15 4.23-9.66 6.33-16.53 6.33h-74.5c-6.87 0-12.38-2.1-16.53-6.33-4.16-4.23-6.22-9.98-6.22-17.27 0-3.22.1-6.37.3-9.44s.6-6.38 1.2-9.94 1.34-6.85 2.26-9.88c.9-3.04 2.12-6 3.66-8.9 1.53-2.88 3.28-5.34 5.28-7.37s4.4-3.66 7.28-4.87c2.87-1.22 6.04-1.84 9.5-1.84.52 0 1.72.66 3.6 1.96 1.86 1.3 4 2.77 6.34 4.38 2.35 1.6 5.42 3.07 9.2 4.37s7.58 1.96 11.38 1.96 7.6-.66 11.38-1.96 6.85-2.76 9.2-4.37c2.35-1.6 4.48-3.08 6.35-4.38s3.07-1.96 3.6-1.96c3.45 0 6.62.62 9.5 1.84 2.86 1.2 5.28 2.84 7.27 4.87 2 2.03 3.75 4.5 5.28 7.38 1.54 2.88 2.76 5.85 3.68 8.9.9 3.02 1.65 6.3 2.25 9.87.6 3.56 1 6.87 1.2 9.94s.3 6.22.3 9.44zM552.72 915c0 9.66-3.2 17.92-9.58 24.75-6.4 6.83-14.1 10.25-23.14 10.25s-16.74-3.42-23.14-10.25-9.58-15.1-9.58-24.75c0-9.66 3.2-17.92 9.58-24.75 6.4-6.83 14.1-10.25 23.14-10.25s16.74 3.42 23.14 10.25 9.58 15.1 9.58 24.75"/></g></svg>