<svg xmlns="http://www.w3.org/2000/svg" width="32" height="32" viewBox="0 0 32 32"><path fill="#fff" fill-rule="evenodd" d="M14.152 5a.5.5 0 0 0-.48.638l.584 2.046a1.814 1.814 0 0 0 3.488 0l.586-2.046A.5.5 0 0 0 17.85 5Zm-3.164-1a3.49 3.49 0 0 1 3.164-2h3.696c1.426 0 2.61.836 3.164 2H22.5A5.5 5.5 0 0 1 28 9.5v15a5.5 5.5 0 0 1-5.5 5.5h-13A5.5 5.5 0 0 1 4 24.5v-15A5.5 5.5 0 0 1 9.5 4ZM21.06 7l-.43 1.508a4.814 4.814 0 0 1-9.26 0L10.94 7H9.5A2.5 2.5 0 0 0 7 9.5v15A2.5 2.5 0 0 0 9.5 27h13a2.5 2.5 0 0 0 2.5-2.5v-15A2.5 2.5 0 0 0 22.5 7Z"/></svg>